<?xml version="1.0" encoding="UTF-8" standalone="no"?>
<!DOCTYPE svg PUBLIC "-//W3C//DTD SVG 1.1//EN" "http://www.w3.org/Graphics/SVG/1.1/DTD/svg11.dtd">
<svg width="100%" height="100%" viewBox="0 0 111 83" version="1.1" xmlns="http://www.w3.org/2000/svg" xmlns:xlink="http://www.w3.org/1999/xlink" xml:space="preserve" xmlns:serif="http://www.serif.com/" style="fill-rule:evenodd;clip-rule:evenodd;stroke-linejoin:round;stroke-miterlimit:2;">
    <g transform="matrix(-6.12323e-17,1,1,6.12323e-17,-348.316,-389.774)">
        <path d="M431.26,354.32L466.74,399.66L450.82,399.58L450.82,452.29L411.83,452.37L411.83,399.66L395.78,399.66L431.26,354.32Z" style="fill:rgb(95,168,237);fill-rule:nonzero;"/>
    </g>
    <g transform="matrix(-6.12323e-17,1,1,6.12323e-17,-348.316,-389.774)">
        <path d="M435.984,350.619C434.848,349.167 433.103,348.316 431.258,348.316C429.414,348.316 427.669,349.167 426.533,350.619L391.051,395.962C390.224,397.018 389.774,398.321 389.774,399.662C389.774,402.954 392.483,405.662 395.774,405.662L405.826,405.662L405.826,452.37C405.826,455.662 408.534,458.37 411.826,458.37L411.839,458.37L450.839,458.29C454.126,458.283 456.826,455.577 456.826,452.29L456.826,405.609L466.715,405.659L466.748,405.659C470.039,405.659 472.748,402.951 472.748,399.659C472.748,398.318 472.298,397.015 471.471,395.959L435.984,350.619ZM450.852,393.579L450.821,393.579C447.529,393.579 444.821,396.287 444.821,399.579L444.821,446.3L417.821,446.354L417.821,399.659C417.821,396.367 415.113,393.659 411.821,393.659L408.09,393.659L431.259,364.053L454.378,393.6L450.852,393.579Z" style="fill:rgb(50,77,109);fill-rule:nonzero;"/>
    </g>
</svg>
