<?xml version="1.0" encoding="UTF-8" standalone="no"?>
<!DOCTYPE svg PUBLIC "-//W3C//DTD SVG 1.1//EN" "http://www.w3.org/Graphics/SVG/1.1/DTD/svg11.dtd">
<svg width="100%" height="100%" viewBox="0 0 512 512" version="1.1" xmlns="http://www.w3.org/2000/svg" xmlns:xlink="http://www.w3.org/1999/xlink" xml:space="preserve" xmlns:serif="http://www.serif.com/" style="fill-rule:evenodd;clip-rule:evenodd;stroke-linejoin:round;stroke-miterlimit:2;">
    <path d="M95.08,354.32L130.56,399.66L114.51,399.66L114.51,452.37L75.51,452.29L75.51,399.58L59.6,399.66L95.08,354.32Z" style="fill:rgb(95,168,237);fill-rule:nonzero;"/>
    <path d="M159.02,246.1L194.5,291.44L178.45,291.44L178.45,344.15L139.46,344.07L139.46,291.36L123.54,291.44L159.02,246.1Z" style="fill:rgb(95,205,164);fill-rule:nonzero;"/>
    <path d="M431.26,354.32L466.74,399.66L450.82,399.58L450.82,452.29L411.83,452.37L411.83,399.66L395.78,399.66L431.26,354.32Z" style="fill:rgb(95,168,237);fill-rule:nonzero;"/>
    <path d="M367.32,246.1L402.8,291.44L386.88,291.36L386.88,344.07L347.88,344.15L347.88,291.44L331.83,291.44L367.32,246.1Z" style="fill:rgb(95,205,164);fill-rule:nonzero;"/>
    <path d="M307.25,160.69C332.8,168.1 350.66,196.39 344.45,222.27C343.702,225.41 340.868,227.64 337.64,227.63C336.113,227.631 334.628,227.125 333.42,226.19C323.28,218.45 309.4,211.88 296.42,208.18L307.25,160.69Z" style="fill:rgb(176,181,202);fill-rule:nonzero;"/>
    <path d="M221.5,162.02L232.37,209.64L232.36,209.64C214.95,214.87 195.75,228.72 188.8,235.71C188.372,236.144 187.787,236.388 187.177,236.388C186.141,236.388 185.23,235.683 184.97,234.68L183.71,229.85C176.3,201.31 193.33,170.66 221.5,162.02Z" style="fill:rgb(176,181,202);fill-rule:nonzero;"/>
    <path d="M282.66,250.13C285.11,257.92 289.09,280.03 265.25,294.42C264.444,294.893 263.439,294.885 262.64,294.4C238.43,280.08 244.23,257.54 247.18,250.01C247.323,249.634 247.685,249.385 248.087,249.385C248.519,249.385 248.902,249.674 249.02,250.09C250.47,255.22 254.66,265.83 264.47,266.84C274.38,267.87 279.11,255.9 280.8,250.15C280.922,249.738 281.303,249.453 281.733,249.453C282.155,249.453 282.532,249.728 282.66,250.13Z" style="fill:rgb(243,206,125);fill-rule:nonzero;"/>
    <path d="M296.17,53.25C287.933,37.999 277.703,23.912 265.75,11.36C265.533,11.13 265.231,11 264.915,11C264.599,11 264.297,11.13 264.08,11.36C252.076,23.978 241.772,38.112 233.43,53.4C205.34,105.7 218.03,146.78 218.03,146.78L236.31,226.93C237.359,231.557 241.506,234.87 246.25,234.87L282.2,234.87C286.947,234.872 291.098,231.559 292.15,226.93L310.42,146.78C310.42,146.78 324,105.62 296.17,53.25Z" style="fill:rgb(109,116,134);fill-rule:nonzero;"/>
    <path d="M262.31,227L244.03,146.817C244.03,146.817 231.34,105.717 259.43,53.417C264.753,43.575 270.936,34.224 277.908,25.473C274.226,20.809 270.189,16.098 265.75,11.365C265.533,11.135 265.231,11.005 264.915,11.005C264.599,11.005 264.297,11.135 264.08,11.365C252.076,23.982 241.772,38.113 233.43,53.4C205.34,105.7 218.03,146.779 218.03,146.779L236.31,227C237.354,231.639 241.495,234.972 246.25,235L272.25,235C267.495,234.972 263.354,231.639 262.31,227Z" style="fill:rgb(80,85,96);fill-rule:nonzero;"/>
    <path d="M296.17,53.25C289.39,63.29 277.48,69.51 264.46,69.51C252.197,69.514 240.673,63.532 233.62,53.5L233.43,53.4C241.772,38.112 252.076,23.978 264.08,11.36C264.297,11.13 264.599,11 264.915,11C265.231,11 265.533,11.13 265.75,11.36C277.703,23.912 287.933,37.999 296.17,53.25Z" style="fill:rgb(176,181,202);fill-rule:nonzero;"/>
    <path d="M264.45,90.81C264.457,90.81 264.463,90.81 264.47,90.81C278.086,90.81 289.29,102.014 289.29,115.63C289.29,129.246 278.086,140.45 264.47,140.45C250.854,140.45 239.65,129.246 239.65,115.63C239.65,115.626 239.65,115.623 239.65,115.619C239.65,102.013 250.844,90.815 264.45,90.81Z" style="fill:rgb(173,240,229);fill-rule:nonzero;"/>
    <path d="M265.65,115.63C265.643,107.021 270.119,99.002 277.45,94.489C273.54,92.084 269.037,90.81 264.447,90.81C250.831,90.81 239.627,102.014 239.627,115.63C239.627,129.246 250.831,140.45 264.447,140.45C269.037,140.45 273.54,139.176 277.45,136.771C270.119,132.258 265.643,124.239 265.65,115.63Z" style="fill:rgb(147,198,188);fill-rule:nonzero;"/>
    <path d="M259.43,53.4C264.753,43.561 270.937,34.213 277.908,25.464C274.226,20.799 270.189,16.093 265.75,11.364C265.533,11.134 265.231,11.004 264.915,11.004C264.599,11.004 264.297,11.134 264.08,11.364C252.076,23.981 241.772,38.113 233.43,53.4L233.62,53.5C238.286,60.115 244.955,65.06 252.639,67.606C254.582,62.983 256.831,58.24 259.43,53.4Z" style="fill:rgb(146,152,168);fill-rule:nonzero;"/>
    <g>
        <path d="M75.374,461.3C72.082,461.3 69.374,464.008 69.374,467.3L69.374,472.982C69.374,476.274 72.082,478.982 75.374,478.982C78.666,478.982 81.374,476.274 81.374,472.982L81.374,467.3C81.374,464.008 78.666,461.3 75.374,461.3Z" style="fill:rgb(50,77,109);fill-rule:nonzero;"/>
        <path d="M99.8,350.619C98.664,349.167 96.919,348.316 95.075,348.316C93.23,348.316 91.485,349.167 90.349,350.619L54.87,395.962C54.043,397.018 53.593,398.321 53.593,399.662C53.593,402.954 56.302,405.662 59.593,405.662L59.626,405.662L69.515,405.612L69.515,452.29C69.515,455.577 72.215,458.283 75.502,458.29L114.502,458.37L114.515,458.37C117.807,458.37 120.515,455.662 120.515,452.37L120.515,405.659L130.565,405.659C130.566,405.659 130.566,405.659 130.567,405.659C133.858,405.659 136.567,402.951 136.567,399.659C136.567,398.318 136.117,397.015 135.29,395.959L99.8,350.619ZM114.507,393.659C111.215,393.659 108.507,396.367 108.507,399.659L108.507,446.354L81.507,446.3L81.507,399.579C81.507,396.287 78.799,393.579 75.507,393.579L75.476,393.579L71.95,393.597L95.069,364.053L118.238,393.659L114.507,393.659Z" style="fill:rgb(50,77,109);fill-rule:nonzero;"/>
        <path d="M114.706,461.3C111.414,461.3 108.706,464.008 108.706,467.3L108.706,472.982C108.706,476.274 111.414,478.982 114.706,478.982C117.998,478.982 120.706,476.274 120.706,472.982L120.706,467.3C120.706,464.008 117.998,461.3 114.706,461.3Z" style="fill:rgb(50,77,109);fill-rule:nonzero;"/>
        <path d="M75.374,481.081C72.082,481.081 69.374,483.789 69.374,487.081L69.374,492.763C69.374,496.055 72.082,498.763 75.374,498.763C78.666,498.763 81.374,496.055 81.374,492.763L81.374,487.081C81.374,483.789 78.666,481.081 75.374,481.081Z" style="fill:rgb(50,77,109);fill-rule:nonzero;"/>
        <path d="M114.706,481.081C111.414,481.081 108.706,483.789 108.706,487.081L108.706,492.763C108.706,496.055 111.414,498.763 114.706,498.763C117.998,498.763 120.706,496.055 120.706,492.763L120.706,487.081C120.706,483.789 117.998,481.081 114.706,481.081Z" style="fill:rgb(50,77,109);fill-rule:nonzero;"/>
        <path d="M139.316,353.074C136.024,353.074 133.316,355.782 133.316,359.074L133.316,364.756C133.316,368.048 136.024,370.756 139.316,370.756C142.608,370.756 145.316,368.048 145.316,364.756L145.316,359.074C145.316,355.782 142.608,353.074 139.316,353.074Z" style="fill:rgb(50,77,109);fill-rule:nonzero;"/>
        <path d="M118.149,294.079C119.155,296.132 121.251,297.438 123.537,297.438L123.567,297.438L133.456,297.389L133.456,344.066C133.456,347.353 136.156,350.059 139.443,350.066L178.443,350.146L178.455,350.146C181.747,350.146 184.455,347.438 184.455,344.146L184.455,297.438L194.5,297.438C194.501,297.438 194.502,297.438 194.503,297.438C197.794,297.438 200.503,294.73 200.503,291.438C200.503,290.097 200.053,288.794 199.226,287.738L163.745,242.4C162.609,240.948 160.864,240.097 159.02,240.097C157.175,240.097 155.43,240.948 154.294,242.4L118.811,287.74C117.396,289.548 117.138,292.017 118.149,294.079ZM159.02,255.832L182.188,285.438L178.451,285.438C175.159,285.438 172.451,288.146 172.451,291.438L172.451,338.138L145.451,338.083L145.451,291.358C145.451,288.066 142.743,285.358 139.451,285.358L139.421,285.358L135.894,285.376L159.02,255.832Z" style="fill:rgb(50,77,109);fill-rule:nonzero;"/>
        <path d="M184.648,359.074C184.648,355.782 181.94,353.074 178.648,353.074C175.356,353.074 172.648,355.782 172.648,359.074L172.648,364.756C172.648,368.048 175.356,370.756 178.648,370.756C181.94,370.756 184.648,368.048 184.648,364.756L184.648,359.074Z" style="fill:rgb(50,77,109);fill-rule:nonzero;"/>
        <path d="M139.316,372.859C136.024,372.859 133.316,375.567 133.316,378.859L133.316,384.541C133.316,387.833 136.024,390.541 139.316,390.541C142.608,390.541 145.316,387.833 145.316,384.541L145.316,378.859C145.316,375.567 142.608,372.859 139.316,372.859Z" style="fill:rgb(50,77,109);fill-rule:nonzero;"/>
        <path d="M178.648,372.859C175.356,372.859 172.648,375.567 172.648,378.859L172.648,384.541C172.648,387.833 175.356,390.541 178.648,390.541C181.94,390.541 184.648,387.833 184.648,384.541L184.648,378.859C184.648,375.567 181.94,372.859 178.648,372.859Z" style="fill:rgb(50,77,109);fill-rule:nonzero;"/>
        <path d="M450.962,461.3C447.67,461.3 444.962,464.008 444.962,467.3L444.962,472.982C444.962,476.274 447.67,478.982 450.962,478.982C454.254,478.982 456.962,476.274 456.962,472.982L456.962,467.3C456.962,464.008 454.254,461.3 450.962,461.3Z" style="fill:rgb(50,77,109);fill-rule:nonzero;"/>
        <path d="M435.984,350.619C434.848,349.167 433.103,348.316 431.258,348.316C429.414,348.316 427.669,349.167 426.533,350.619L391.051,395.962C390.224,397.018 389.774,398.321 389.774,399.662C389.774,402.954 392.483,405.662 395.774,405.662C395.775,405.662 395.775,405.662 395.776,405.662L405.826,405.662L405.826,452.37C405.826,455.662 408.534,458.37 411.826,458.37L411.839,458.37L450.839,458.29C454.126,458.283 456.826,455.577 456.826,452.29L456.826,405.609L466.715,405.659L466.748,405.659C470.039,405.659 472.748,402.951 472.748,399.659C472.748,398.318 472.298,397.015 471.471,395.959L435.984,350.619ZM450.852,393.579L450.821,393.579C447.529,393.579 444.821,396.287 444.821,399.579L444.821,446.3L417.821,446.354L417.821,399.659C417.821,396.367 415.113,393.659 411.821,393.659L408.09,393.659L431.259,364.053L454.378,393.6L450.852,393.579Z" style="fill:rgb(50,77,109);fill-rule:nonzero;"/>
        <path d="M411.63,461.3C408.338,461.3 405.63,464.008 405.63,467.3L405.63,472.982C405.63,476.274 408.338,478.982 411.63,478.982C414.922,478.982 417.63,476.274 417.63,472.982L417.63,467.3C417.63,464.008 414.922,461.3 411.63,461.3Z" style="fill:rgb(50,77,109);fill-rule:nonzero;"/>
        <path d="M450.962,481.081C447.67,481.081 444.962,483.789 444.962,487.081L444.962,492.763C444.962,496.055 447.67,498.763 450.962,498.763C454.254,498.763 456.962,496.055 456.962,492.763L456.962,487.081C456.962,483.789 454.254,481.081 450.962,481.081Z" style="fill:rgb(50,77,109);fill-rule:nonzero;"/>
        <path d="M411.63,481.081C408.338,481.081 405.63,483.789 405.63,487.081L405.63,492.763C405.63,496.055 408.338,498.763 411.63,498.763C414.922,498.763 417.63,496.055 417.63,492.763L417.63,487.081C417.63,483.789 414.922,481.081 411.63,481.081Z" style="fill:rgb(50,77,109);fill-rule:nonzero;"/>
        <path d="M387.02,353.074C383.728,353.074 381.02,355.782 381.02,359.074L381.02,364.756C381.02,368.048 383.728,370.756 387.02,370.756C390.312,370.756 393.02,368.048 393.02,364.756L393.02,359.074C393.02,355.782 390.312,353.074 387.02,353.074Z" style="fill:rgb(50,77,109);fill-rule:nonzero;"/>
        <path d="M326.441,294.065C327.444,296.125 329.544,297.438 331.835,297.438L341.885,297.438L341.885,344.146C341.885,347.438 344.593,350.146 347.885,350.146L347.897,350.146L386.897,350.066C390.184,350.059 392.884,347.353 392.884,344.066L392.884,297.389L402.773,297.438L402.805,297.438C406.096,297.438 408.805,294.73 408.805,291.438C408.805,290.097 408.355,288.794 407.528,287.738L372.042,242.4C370.906,240.948 369.161,240.097 367.317,240.097C365.472,240.097 363.727,240.948 362.591,242.4L327.109,287.74C325.698,289.544 325.438,292.006 326.441,294.065ZM367.316,255.832L390.436,285.376L386.91,285.358L386.88,285.358C383.588,285.358 380.88,288.066 380.88,291.358L380.88,338.079L353.88,338.134L353.88,291.434C353.88,288.142 351.172,285.434 347.88,285.434L344.143,285.434L367.316,255.832Z" style="fill:rgb(50,77,109);fill-rule:nonzero;"/>
        <path d="M353.688,359.074C353.688,355.782 350.98,353.074 347.688,353.074C344.396,353.074 341.688,355.782 341.688,359.074L341.688,364.756C341.688,368.048 344.396,370.756 347.688,370.756C350.98,370.756 353.688,368.048 353.688,364.756L353.688,359.074Z" style="fill:rgb(50,77,109);fill-rule:nonzero;"/>
        <path d="M393.02,384.541L393.02,378.859C393.02,375.567 390.312,372.859 387.02,372.859C383.728,372.859 381.02,375.567 381.02,378.859L381.02,384.541C381.02,387.833 383.728,390.541 387.02,390.541C390.312,390.541 393.02,387.833 393.02,384.541Z" style="fill:rgb(50,77,109);fill-rule:nonzero;"/>
        <path d="M347.688,372.859C344.396,372.859 341.688,375.567 341.688,378.859L341.688,384.541C341.688,387.833 344.396,390.541 347.688,390.541C350.98,390.541 353.688,387.833 353.688,384.541L353.688,378.859C353.688,375.567 350.98,372.859 347.688,372.859Z" style="fill:rgb(50,77,109);fill-rule:nonzero;"/>
        <path d="M150.974,160.693C150.974,163.985 153.682,166.693 156.974,166.693C160.266,166.693 162.974,163.985 162.974,160.693L162.974,105.633C162.974,102.341 160.266,99.633 156.974,99.633C153.682,99.633 150.974,102.341 150.974,105.633L150.974,160.693Z" style="fill:rgb(50,77,109);fill-rule:nonzero;"/>
        <path d="M156.974,91.555C160.266,91.555 162.974,88.847 162.974,85.555L162.974,77.116C162.974,73.824 160.266,71.116 156.974,71.116C153.682,71.116 150.974,73.824 150.974,77.116L150.974,85.555C150.974,88.847 153.682,91.555 156.974,91.555Z" style="fill:rgb(50,77,109);fill-rule:nonzero;"/>
        <path d="M123,210.683L123,155.622C123,152.33 120.292,149.622 117,149.622C113.708,149.622 111,152.33 111,155.622L111,210.683C111,213.975 113.708,216.683 117,216.683C120.292,216.683 123,213.975 123,210.683Z" style="fill:rgb(50,77,109);fill-rule:nonzero;"/>
        <path d="M117,121.105C113.708,121.105 111,123.813 111,127.105L111,135.544C111,138.836 113.708,141.544 117,141.544C120.292,141.544 123,138.836 123,135.544L123,127.105C123,123.813 120.292,121.105 117,121.105Z" style="fill:rgb(50,77,109);fill-rule:nonzero;"/>
        <path d="M360.817,160.693C360.817,163.985 363.525,166.693 366.817,166.693C370.109,166.693 372.817,163.985 372.817,160.693L372.817,105.633C372.817,102.341 370.109,99.633 366.817,99.633C363.525,99.633 360.817,102.341 360.817,105.633L360.817,160.693Z" style="fill:rgb(50,77,109);fill-rule:nonzero;"/>
        <path d="M366.817,91.555C370.109,91.555 372.817,88.847 372.817,85.555L372.817,77.116C372.817,73.824 370.109,71.116 366.817,71.116C363.525,71.116 360.817,73.824 360.817,77.116L360.817,85.555C360.817,88.847 363.525,91.555 366.817,91.555Z" style="fill:rgb(50,77,109);fill-rule:nonzero;"/>
        <path d="M400.788,210.683C400.788,213.975 403.496,216.683 406.788,216.683C410.08,216.683 412.788,213.975 412.788,210.683L412.788,155.622C412.788,152.33 410.08,149.622 406.788,149.622C403.496,149.622 400.788,152.33 400.788,155.622L400.788,210.683Z" style="fill:rgb(50,77,109);fill-rule:nonzero;"/>
        <path d="M406.788,141.544C410.08,141.544 412.788,138.836 412.788,135.544L412.788,127.105C412.788,123.813 410.08,121.105 406.788,121.105C403.496,121.105 400.788,123.813 400.788,127.105L400.788,135.544C400.788,138.836 403.496,141.544 406.788,141.544Z" style="fill:rgb(50,77,109);fill-rule:nonzero;"/>
        <path d="M61.472,261.305L63.18,253.913C63.276,253.483 63.324,253.044 63.324,252.604C63.324,249.313 60.616,246.604 57.324,246.604C54.556,246.604 52.13,248.52 51.488,251.213L49.78,258.6C49.671,259.056 49.616,259.523 49.616,259.991C49.616,263.283 52.325,265.991 55.616,265.991C58.416,265.991 60.861,264.032 61.472,261.3L61.472,261.305Z" style="fill:rgb(50,77,109);fill-rule:nonzero;"/>
        <path d="M55.381,287.665L57.089,280.273C57.185,279.843 57.233,279.404 57.233,278.964C57.233,275.673 54.525,272.964 51.233,272.964C48.465,272.964 46.039,274.88 45.397,277.573L43.69,284.965C43.574,285.435 43.516,285.916 43.516,286.4C43.516,289.692 46.224,292.4 49.516,292.4C52.332,292.4 54.787,290.418 55.381,287.665Z" style="fill:rgb(50,77,109);fill-rule:nonzero;"/>
        <path d="M57.374,270.29C57.284,270.707 57.239,271.132 57.239,271.558C57.239,274.374 59.221,276.829 61.974,277.423L69.614,279.075C70.051,279.175 70.499,279.225 70.947,279.225C74.239,279.225 76.947,276.517 76.947,273.225C76.947,270.386 74.932,267.917 72.151,267.347L64.511,265.694C64.093,265.603 63.666,265.558 63.239,265.558C60.424,265.558 57.969,267.539 57.374,270.29Z" style="fill:rgb(50,77,109);fill-rule:nonzero;"/>
        <path d="M49.5,268.587C49.59,268.17 49.635,267.745 49.635,267.319C49.635,264.503 47.653,262.048 44.9,261.454L37.26,259.802C36.823,259.702 36.375,259.652 35.927,259.652C32.635,259.652 29.927,262.36 29.927,265.652C29.927,268.491 31.942,270.96 34.723,271.53L42.363,273.183C42.782,273.273 43.209,273.319 43.638,273.319C46.452,273.318 48.905,271.337 49.5,268.587Z" style="fill:rgb(50,77,109);fill-rule:nonzero;"/>
        <path d="M455.833,43.475C459.123,43.473 461.83,40.765 461.83,37.475C461.83,36.591 461.635,35.718 461.258,34.918L458.027,28.054C457.051,25.926 454.915,24.557 452.574,24.557C449.282,24.557 446.574,27.265 446.574,30.557C446.574,31.459 446.778,32.351 447.17,33.164L450.4,40.028C451.388,42.129 453.511,43.476 455.833,43.475Z" style="fill:rgb(50,77,109);fill-rule:nonzero;"/>
        <path d="M469.547,52.532C468.571,50.404 466.435,49.035 464.094,49.035C460.802,49.035 458.094,51.743 458.094,55.035C458.094,55.937 458.298,56.829 458.69,57.642L461.92,64.506C462.896,66.634 465.032,68.003 467.373,68.003C470.665,68.003 473.373,65.295 473.373,62.003C473.373,61.101 473.169,60.209 472.777,59.396L469.547,52.532Z" style="fill:rgb(50,77,109);fill-rule:nonzero;"/>
        <path d="M473.375,33.052L466.352,36.485C464.274,37.482 462.947,39.591 462.947,41.895C462.947,45.186 465.656,47.895 468.947,47.895C469.875,47.895 470.79,47.68 471.621,47.266L478.645,43.833C480.701,42.828 482.01,40.731 482.01,38.443C482.01,35.151 479.302,32.442 476.01,32.442C475.097,32.442 474.195,32.651 473.375,33.052Z" style="fill:rgb(50,77,109);fill-rule:nonzero;"/>
        <path d="M438.547,56.752C439.55,58.809 441.647,60.119 443.935,60.119C444.849,60.119 445.751,59.91 446.572,59.508L453.597,56.075C455.653,55.07 456.962,52.973 456.962,50.684C456.962,47.393 454.254,44.684 450.962,44.684C450.049,44.684 449.147,44.893 448.327,45.294L441.3,48.727C438.344,50.173 437.101,53.796 438.547,56.752Z" style="fill:rgb(50,77,109);fill-rule:nonzero;"/>
        <path d="M89.189,53.037C89.189,53.037 89.188,53.037 89.188,53.037C84.877,53.037 81.329,56.585 81.329,60.896C81.329,65.207 84.877,68.755 89.188,68.755C93.498,68.755 97.045,65.21 97.047,60.9C97.045,56.589 93.5,53.042 89.189,53.037Z" style="fill:rgb(50,77,109);fill-rule:nonzero;"/>
        <path d="M443.925,268.712C448.236,268.712 451.784,265.164 451.784,260.853C451.784,256.542 448.236,252.994 443.925,252.994C439.614,252.994 436.066,256.542 436.066,260.853C436.071,265.162 439.616,268.707 443.925,268.712Z" style="fill:rgb(50,77,109);fill-rule:nonzero;"/>
        <path d="M177.9,231.362L179.156,236.194C180.104,239.829 183.412,242.384 187.169,242.384C189.374,242.384 191.491,241.503 193.045,239.938C198.364,234.592 213.126,223.549 228.008,217.538L230.454,228.267C232.101,235.628 238.706,240.897 246.249,240.867L282.2,240.867C289.745,240.9 296.352,235.632 298,228.269L300.826,215.877C311.188,219.409 320.953,224.495 329.787,230.961C332.049,232.688 334.818,233.625 337.664,233.625C343.648,233.625 348.893,229.488 350.287,223.669C353.639,209.697 351.007,194.692 342.877,181.42C336.181,170.412 326.175,161.796 314.294,156.81L316.223,148.354C316.996,145.845 321.676,129.295 318.834,104.818C316.077,81.072 305.389,44.87 270.134,7.259C268.784,5.819 266.896,5.002 264.922,5.002C262.948,5.002 261.06,5.819 259.71,7.259C224.472,44.846 213.404,81.017 210.325,104.742C207.125,129.401 211.563,146.011 212.225,148.308L214.478,158.188C186.35,169.764 170.117,201.4 177.9,231.362ZM338.611,220.871C338.544,221.2 338.304,221.467 337.985,221.571C337.674,221.693 337.319,221.637 337.061,221.424C328.042,214.541 315.81,208.262 303.502,204.11L311.577,168.698C331.143,177.662 343.491,200.544 338.615,220.871L338.611,220.871ZM264.911,19.333C274.133,29.558 282.208,40.761 288.991,52.744C282.757,59.706 273.804,63.636 264.46,63.512C255.369,63.5 246.708,59.585 240.691,52.771C247.546,40.791 255.666,29.581 264.913,19.333L264.911,19.333ZM222.306,105.615C224.353,91.168 228.601,77.12 234.9,63.959C242.959,71.372 253.515,75.497 264.465,75.512C275.637,75.592 286.443,71.483 294.738,64C300.91,77.132 304.991,91.148 306.832,105.541C309.7,129.156 304.771,144.769 304.726,144.907C304.667,145.087 304.616,145.269 304.574,145.453L286.3,225.6C285.873,227.511 284.158,228.879 282.2,228.87L246.253,228.87C244.295,228.879 242.58,227.511 242.153,225.6L223.88,145.449C223.85,145.314 223.809,145.163 223.769,145.029C223.722,144.874 219.115,129.251 222.308,105.615L222.306,105.615ZM217.189,170.092L225.314,205.72C211.669,210.925 197.72,220.141 189.239,227.22C184.156,204.075 195.797,180.283 217.189,170.091L217.189,170.092Z" style="fill:rgb(50,77,109);fill-rule:nonzero;"/>
        <path d="M288.38,248.33L288.38,248.325C287.467,245.433 284.767,243.453 281.734,243.453C278.651,243.453 275.917,245.499 275.048,248.457C274.148,251.519 270.748,261.449 265.09,260.876C258.797,260.226 255.79,251.97 254.79,248.457C253.944,245.465 251.193,243.384 248.083,243.384C245.218,243.384 242.632,245.151 241.59,247.82C235.279,263.956 236.69,286.02 259.59,299.569C260.918,300.355 262.432,300.769 263.975,300.769C265.517,300.77 267.031,300.35 268.352,299.554C296.539,282.549 290.808,256.047 288.38,248.33ZM263.941,288.147C253.605,281.359 250.541,272.857 250.326,265.519C253.725,269.604 258.576,272.218 263.856,272.812C269.217,273.365 274.536,271.355 278.19,267.393C277.078,274.253 273.343,281.875 263.941,288.147Z" style="fill:rgb(50,77,109);fill-rule:nonzero;"/>
        <path d="M264.454,146.453C264.459,146.453 264.464,146.453 264.469,146.453C281.378,146.453 295.292,132.539 295.292,115.63C295.292,98.721 281.378,84.807 264.469,84.807C247.56,84.807 233.646,98.721 233.646,115.63C233.662,132.527 247.557,146.429 264.454,146.453ZM264.454,96.808C264.459,96.808 264.464,96.808 264.469,96.808C274.795,96.808 283.292,105.305 283.292,115.631C283.292,125.957 274.795,134.454 264.469,134.454C254.143,134.454 245.646,125.957 245.646,115.631C245.646,115.631 245.646,115.63 245.646,115.63C245.655,105.313 254.137,96.824 264.454,96.808Z" style="fill:rgb(50,77,109);fill-rule:nonzero;"/>
        <path d="M253.605,197.905C253.026,195.135 250.562,193.132 247.732,193.132C244.44,193.132 241.732,195.841 241.732,199.132C241.732,199.594 241.785,200.055 241.891,200.505L243.722,208.762C244.301,211.532 246.765,213.535 249.595,213.535C252.887,213.535 255.595,210.826 255.595,207.535C255.595,207.073 255.542,206.612 255.436,206.162L253.605,197.905Z" style="fill:rgb(50,77,109);fill-rule:nonzero;"/>
        <path d="M238.729,186.246C239.364,188.948 241.795,190.873 244.57,190.873C247.861,190.873 250.57,188.165 250.57,184.873C250.57,184.461 250.527,184.05 250.443,183.646L244.133,155.196C243.526,152.46 241.078,150.496 238.276,150.496C234.984,150.496 232.275,153.204 232.275,156.496C232.275,156.933 232.323,157.369 232.418,157.796L238.729,186.246Z" style="fill:rgb(50,77,109);fill-rule:nonzero;"/>
        <path d="M210.611,432.478C197.775,432.497 186.63,441.638 184.1,454.222C170.466,455.35 159.845,466.885 159.845,480.566C159.845,495.061 171.767,506.99 186.262,507C189.554,507 192.262,504.292 192.262,501C192.262,497.708 189.554,495 186.262,495C186.217,495 186.172,495.001 186.126,495.001C178.208,495.001 171.692,488.485 171.692,480.567C171.692,472.648 178.208,466.133 186.126,466.133C186.969,466.133 187.81,466.206 188.639,466.353C188.965,466.407 189.294,466.434 189.624,466.434C192.916,466.434 195.624,463.726 195.624,460.434C195.624,460.345 195.622,460.255 195.618,460.165C195.611,460.008 195.601,459.852 195.591,459.695L195.578,459.522C195.578,459.481 195.578,459.44 195.578,459.399C195.578,451.152 202.364,444.365 210.612,444.365C218.859,444.365 225.646,451.152 225.646,459.399C225.646,459.44 225.645,459.481 225.645,459.522C225.645,462.814 228.353,465.522 231.645,465.522C234.937,465.522 237.645,462.814 237.645,459.522C237.631,444.695 225.438,432.497 210.611,432.478Z" style="fill:rgb(50,77,109);fill-rule:nonzero;"/>
        <path d="M340.29,454.222C337.776,441.629 326.62,432.48 313.779,432.48C298.949,432.48 286.745,444.683 286.745,459.514C286.745,459.517 286.745,459.519 286.745,459.522C286.745,462.814 289.453,465.522 292.745,465.522C296.037,465.522 298.745,462.814 298.745,459.522C298.745,459.516 298.745,459.51 298.745,459.505C298.745,451.258 305.531,444.471 313.778,444.471C322.018,444.471 328.801,451.247 328.811,459.487L328.8,459.68C328.788,459.848 328.778,460.015 328.771,460.18C328.768,460.263 328.766,460.347 328.766,460.43C328.766,463.722 331.474,466.43 334.766,466.43C335.096,466.43 335.425,466.403 335.751,466.349C336.528,466.221 337.315,466.156 338.102,466.156C346.014,466.156 352.524,472.666 352.524,480.578C352.524,488.48 346.03,494.986 338.128,495C334.836,495 332.128,497.708 332.128,501C332.128,504.292 334.836,507 338.128,507C352.623,506.99 364.545,495.061 364.545,480.566C364.545,466.885 353.924,455.35 340.29,454.222Z" style="fill:rgb(50,77,109);fill-rule:nonzero;"/>
        <path d="M246.372,306.943C243.08,306.943 240.372,309.651 240.372,312.943L240.372,326.31C240.372,329.602 243.08,332.31 246.372,332.31C249.664,332.31 252.372,329.602 252.372,326.31L252.372,312.943C252.372,309.651 249.664,306.943 246.372,306.943Z" style="fill:rgb(50,77,109);fill-rule:nonzero;"/>
        <path d="M246.372,338.146C243.08,338.146 240.372,340.854 240.372,344.146L240.372,433.246C240.372,436.538 243.08,439.246 246.372,439.246C249.664,439.246 252.372,436.538 252.372,433.246L252.372,344.146C252.372,340.854 249.664,338.146 246.372,338.146Z" style="fill:rgb(50,77,109);fill-rule:nonzero;"/>
        <path d="M279.348,410.2C276.056,410.2 273.348,412.908 273.348,416.2L273.348,433.247C273.348,436.539 276.056,439.247 279.348,439.247C282.64,439.247 285.348,436.539 285.348,433.247L285.348,416.2C285.348,412.908 282.64,410.2 279.348,410.2Z" style="fill:rgb(50,77,109);fill-rule:nonzero;"/>
        <path d="M279.348,306.943C276.056,306.943 273.348,309.651 273.348,312.943L273.348,397.574C273.348,400.866 276.056,403.574 279.348,403.574C282.64,403.574 285.348,400.866 285.348,397.574L285.348,312.943C285.348,309.651 282.64,306.943 279.348,306.943Z" style="fill:rgb(50,77,109);fill-rule:nonzero;"/>
        <path d="M210.4,342.936L210.4,414.581C210.4,417.873 213.108,420.581 216.4,420.581C219.692,420.581 222.4,417.873 222.4,414.581L222.4,342.936C222.4,339.644 219.692,336.936 216.4,336.936C213.108,336.936 210.4,339.644 210.4,342.936Z" style="fill:rgb(50,77,109);fill-rule:nonzero;"/>
        <path d="M300.327,342.936L300.327,414.581C300.327,417.873 303.035,420.581 306.327,420.581C309.619,420.581 312.327,417.873 312.327,414.581L312.327,342.936C312.327,339.644 309.619,336.936 306.327,336.936C303.035,336.936 300.327,339.644 300.327,342.936Z" style="fill:rgb(50,77,109);fill-rule:nonzero;"/>
    </g>
</svg>
